<?xml version="1.0" encoding="UTF-8" standalone="no"?>
<svg
   xmlns:dc="http://purl.org/dc/elements/1.1/"
   xmlns:cc="http://creativecommons.org/ns#"
   xmlns:rdf="http://www.w3.org/1999/02/22-rdf-syntax-ns#"
   xmlns:svg="http://www.w3.org/2000/svg"
   xmlns="http://www.w3.org/2000/svg"
   xmlns:sodipodi="http://sodipodi.sourceforge.net/DTD/sodipodi-0.dtd"
   xmlns:inkscape="http://www.inkscape.org/namespaces/inkscape"
   version="1.1"
   width="376.69"
   height="66.507622"
   id="svg2"
   xml:space="preserve"
   sodipodi:docname="NZILBB_POS_RGB.svg"
   inkscape:version="1.0.1 (3bc2e813f5, 2020-09-07)"><style
     id="style1322"></style><sodipodi:namedview
     pagecolor="#ffffff"
     bordercolor="#666666"
     borderopacity="1"
     objecttolerance="10"
     gridtolerance="10"
     guidetolerance="10"
     inkscape:pageopacity="0"
     inkscape:pageshadow="2"
     inkscape:window-width="1848"
     inkscape:window-height="1014"
     id="namedview131"
     showgrid="false"
     inkscape:zoom="3.2705938"
     inkscape:cx="199.84602"
     inkscape:cy="33.253811"
     inkscape:window-x="72"
     inkscape:window-y="29"
     inkscape:window-maximized="1"
     inkscape:current-layer="svg2" /><metadata
     id="metadata8"><rdf:RDF><cc:Work
         rdf:about=""><dc:format>image/svg+xml</dc:format><dc:type
           rdf:resource="http://purl.org/dc/dcmitype/StillImage" /><dc:title /></cc:Work></rdf:RDF></metadata><defs
     id="defs6"><clipPath
       id="clipPath16"><path
         d="m 0,53.206 301.352,0 L 301.352,0 0,0 0,53.206 z"
         id="path18" /></clipPath></defs><g
     transform="matrix(1.25,0,0,-1.25,40.0195,25.64575)"
     id="g20"><path
       d="m 0,0 c -1.63,0.751 -7.257,4.863 -8.966,11.815 1.752,0.485 4.196,0.024 4.919,-1.668 -0.251,-0.668 -0.942,-1.372 -1.837,-0.975 0.433,0.319 0.646,0.972 0.256,1.429 -0.729,0.632 -1.902,0.076 -1.923,-0.776 -0.039,-1.842 3.479,-2.173 4.665,-1.085 1.012,-0.618 0.551,-2.544 -0.502,-2.763 0.817,1.112 -0.504,2.027 -1.433,1.607 -1.671,-0.757 0.063,-3.495 1.812,-3.646 2.257,-0.191 2.514,1.46 2.66,2.568 0.366,2.266 -2.704,8.098 -11,7.319 -0.571,-0.604 -2.245,-4.084 -2.513,-6.112 -0.62,-4.648 1.107,-10.6 5.717,-9.018 1.155,0.534 1.772,1.717 1.366,3.11 -0.448,1.536 -3.325,1.672 -3.133,-0.526 0.046,-0.543 0.184,-0.714 0.609,-1.086 -0.769,0.294 -1.437,0.68 -1.627,1.518 1.133,0.889 2.82,2.836 1.706,4.44 -0.989,1.431 -3.276,-0.2 -1.856,-1.547 0.216,-0.242 0.676,-0.247 1.034,-0.051 -0.289,-0.683 -0.866,-1.05 -1.657,-1.171 -0.533,1.981 -0.042,4.96 1.236,6.482 1.235,-3.968 4.903,-8.173 9.214,-10.825 0.109,-0.068 0.224,-0.12 0.335,-0.185 -0.447,-0.247 -0.888,-0.502 -1.325,-0.77 -6.732,-4.144 -12.468,-10.713 -14.395,-16.911 -1.995,2.376 -2.763,7.03 -1.929,10.126 1.237,-0.19 2.134,-0.764 2.588,-1.83 -0.56,0.304 -1.281,0.298 -1.617,-0.08 -2.216,-2.106 1.359,-4.652 2.905,-2.417 1.737,2.507 -0.896,5.549 -2.669,6.936 0.297,1.309 1.342,1.914 2.543,2.371 -0.665,-0.58 -0.879,-0.846 -0.954,-1.697 -0.298,-3.434 4.198,-3.22 4.896,-0.818 0.635,2.173 -0.328,4.02 -2.133,4.857 -7.203,2.469 -9.901,-6.828 -8.933,-14.093 0.419,-3.166 3.035,-8.599 3.927,-9.546 12.958,-1.213 17.758,7.893 17.185,11.435 -0.23,1.729 -0.632,4.311 -4.156,4.013 -2.734,-0.237 -5.441,-4.512 -2.832,-5.695 1.451,-0.659 3.518,0.771 2.24,2.511 1.646,-0.344 2.365,-3.351 0.785,-4.319 -1.855,1.7 -7.349,1.182 -7.289,-1.696 0.032,-1.332 1.865,-2.199 3.004,-1.21 0.612,0.712 0.276,1.732 -0.4,2.233 1.399,0.619 2.477,-0.483 2.868,-1.524 -1.127,-2.643 -4.945,-3.365 -7.683,-2.607 2.668,10.859 11.463,17.286 14.012,18.459 0.297,0.104 0.552,0.188 0.785,0.264 v 1.222 1.532 0.231 C 0.355,-0.121 0.191,-0.066 0,0"
       id="path22"
       style="fill:#656263;fill-opacity:1;fill-rule:nonzero;stroke:none" /></g><g
     transform="matrix(1.25,0,0,-1.25,57.542125,27.3695)"
     id="g24"><path
       d="m 0,0 c -1.805,-0.837 -2.77,-2.684 -2.134,-4.857 0.699,-2.402 5.194,-2.616 4.896,0.818 -0.075,0.851 -0.287,1.117 -0.953,1.697 1.202,-0.457 2.245,-1.062 2.543,-2.371 -1.772,-1.388 -4.406,-4.429 -2.667,-6.936 1.544,-2.235 5.118,0.311 2.9,2.417 -0.333,0.378 -1.056,0.384 -1.615,0.08 0.454,1.066 1.352,1.64 2.589,1.83 0.835,-3.096 0.067,-7.75 -1.93,-10.126 -1.926,6.198 -7.662,12.767 -14.394,16.911 -0.438,0.268 -0.881,0.523 -1.325,0.769 0.111,0.066 0.226,0.119 0.334,0.186 4.311,2.652 7.983,6.856 9.215,10.825 1.277,-1.522 1.77,-4.501 1.236,-6.482 -0.793,0.121 -1.367,0.488 -1.656,1.171 0.357,-0.196 0.82,-0.191 1.033,0.05 C -0.509,7.33 -2.796,8.961 -3.786,7.53 -4.898,5.926 -3.213,3.979 -2.078,3.09 -2.267,2.252 -2.936,1.866 -3.707,1.572 c 0.427,0.372 0.565,0.543 0.611,1.086 0.191,2.197 -2.687,2.062 -3.133,0.526 -0.407,-1.393 0.212,-2.576 1.366,-3.11 4.61,-1.582 6.336,4.37 5.717,9.018 -0.269,2.028 -1.941,5.508 -2.513,6.112 -8.297,0.779 -11.366,-5.053 -10.999,-7.319 0.145,-1.108 0.405,-2.759 2.661,-2.569 1.747,0.152 3.481,2.89 1.81,3.647 -0.929,0.42 -2.249,-0.495 -1.433,-1.608 -1.054,0.22 -1.515,2.146 -0.504,2.764 1.189,-1.088 4.705,-0.757 4.667,1.085 -0.02,0.852 -1.195,1.408 -1.923,0.775 -0.392,-0.457 -0.178,-1.109 0.256,-1.428 -0.896,-0.397 -1.585,0.307 -1.836,0.975 0.723,1.692 3.164,2.153 4.919,1.668 C -5.75,6.242 -11.38,2.13 -13.009,1.379 -13.199,1.313 -13.362,1.258 -13.513,1.21 V 0.979 -0.553 -1.775 c 0.234,-0.077 0.488,-0.161 0.785,-0.264 2.549,-1.173 11.343,-7.6 14.012,-18.459 -2.738,-0.758 -6.556,-0.036 -7.684,2.607 0.392,1.04 1.469,2.143 2.869,1.524 -0.675,-0.501 -1.012,-1.521 -0.401,-2.234 1.138,-0.988 2.972,-0.121 3.003,1.211 0.062,2.878 -5.431,3.396 -7.288,1.696 -1.579,0.967 -0.86,3.975 0.786,4.319 -1.277,-1.74 0.789,-3.17 2.24,-2.511 2.61,1.183 -0.098,5.458 -2.832,5.695 -3.525,0.297 -3.93,-2.284 -4.158,-4.013 -0.568,-3.542 4.229,-12.649 17.188,-11.435 0.891,0.947 3.506,6.38 3.926,9.546 C 9.899,-6.828 7.203,2.469 0,0"
       id="path26"
       style="fill:#9fa638;fill-opacity:1;fill-rule:nonzero;stroke:none" /></g><g
     transform="matrix(1.25,0,0,-1.25,80.726875,16.341625)"
     id="g28"><path
       d="M 0,0 V -7.322 H -0.887 V 0 H -3.171 V 0.766 H 2.297 V 0 Z"
       id="path30"
       style="fill:#656263;fill-opacity:1;fill-rule:nonzero;stroke:none" /></g><g
     transform="matrix(1.25,0,0,-1.25,86.586875,18.341125)"
     id="g32"><path
       d="M 0,0 C -0.86,0 -1.424,-0.672 -1.585,-1.666 H 1.276 C 1.276,-0.645 0.9,0 0,0 m 0.242,-5.871 c -1.76,0 -2.727,1.236 -2.727,3.291 0,1.963 0.98,3.266 2.539,3.266 1.424,0 2.055,-0.928 2.055,-2.258 v -0.766 h -3.748 c 0,-1.853 0.618,-2.754 2.109,-2.754 0.497,0 0.927,0.149 1.37,0.377 L 2.163,-5.4 C 1.599,-5.723 0.98,-5.871 0.242,-5.871"
       id="path34"
       style="fill:#656263;fill-opacity:1;fill-rule:nonzero;stroke:none" /></g><g
     transform="matrix(1.25,0,0,-1.25,101.11025,25.89725)"
     id="g36"><path
       d="M 0,0 -3.977,4.514 -0.604,8.41 H 0.47 L -2.875,4.58 0.658,0.577 Z m -4.891,8.41 h 0.887 V 0.322 h -0.887 z"
       id="path38"
       style="fill:#656263;fill-opacity:1;fill-rule:nonzero;stroke:none" /></g><g
     transform="matrix(1.25,0,0,-1.25,107.28888,22.103375)"
     id="g40"><path
       d="m 0,0 -1.128,-0.147 c -0.9,-0.121 -1.383,-0.39 -1.383,-1.021 0,-0.564 0.362,-0.94 0.94,-0.94 0.712,0 1.169,0.322 1.571,0.67 z M 0.834,4.636 H -3.049 V 5.375 H 0.834 Z M 0.163,-2.82 0.055,-2.068 H 0.041 c -0.483,-0.457 -0.98,-0.806 -1.733,-0.806 -1.075,0 -1.679,0.632 -1.679,1.611 0,1.103 0.886,1.64 2.149,1.775 L 0,0.646 v 0.618 c 0,0.953 -0.281,1.625 -1.383,1.625 -0.538,0 -0.94,-0.174 -1.343,-0.363 l -0.31,0.659 c 0.538,0.308 1.115,0.51 1.854,0.51 1.169,0 2.029,-0.713 2.029,-1.922 V -1.329 L 1.035,-2.66 Z"
       id="path42"
       style="fill:#656263;fill-opacity:1;fill-rule:nonzero;stroke:none" /></g><g
     transform="matrix(1.25,0,0,-1.25,115.83612,25.4945)"
     id="g44"><path
       d="m 0,0 v 4.111 c 0,1.007 -0.39,1.518 -1.331,1.518 -0.658,0 -1.087,-0.256 -1.531,-0.645 V 0 h -0.846 v 7.684 l -0.188,1.33 1.034,0.162 V 5.669 h 0.013 c 0.511,0.443 1.089,0.739 1.814,0.739 1.061,0 1.881,-0.685 1.881,-1.934 L 0.846,0 Z"
       id="path46"
       style="fill:#656263;fill-opacity:1;fill-rule:nonzero;stroke:none" /></g><g
     transform="matrix(1.25,0,0,-1.25,124.58375,25.62875)"
     id="g48"><path
       d="m 0,0 -0.107,0.752 h -0.014 c -0.497,-0.484 -1.114,-0.793 -1.867,-0.793 -1.061,0 -1.881,0.699 -1.881,1.948 v 3.077 l -0.188,1.329 1.035,0.162 V 2.271 c 0,-1.008 0.376,-1.546 1.316,-1.546 0.659,0 1.102,0.269 1.545,0.658 V 4.984 L -0.35,6.313 0.686,6.475 V 1.491 L 0.874,0.16 Z"
       id="path50"
       style="fill:#656263;fill-opacity:1;fill-rule:nonzero;stroke:none" /></g><g
     transform="matrix(1.25,0,0,-1.25,128.35937,25.4945)"
     id="g52"><path
       d="M 0,0 V 4.877 L -0.187,6.206 0.847,6.367 V 0 Z m 0.431,7.188 c -0.363,0 -0.672,0.281 -0.672,0.671 0,0.389 0.309,0.671 0.672,0.671 0.362,0 0.658,-0.282 0.658,-0.671 0,-0.39 -0.296,-0.671 -0.658,-0.671"
       id="path54"
       style="fill:#656263;fill-opacity:1;fill-rule:nonzero;stroke:none" /></g><g
     transform="matrix(1.25,0,0,-1.25,138.08162,16.141375)"
     id="g56"><path
       d="m 0,0 c -0.322,0 -0.685,-0.026 -0.886,-0.053 v -3.238 h 0.201 c 1.182,0 2.445,0.47 2.445,1.812 C 1.76,-0.457 1.061,0 0,0 m 2.365,-7.725 -2.391,3.762 c -0.215,-0.027 -0.416,-0.04 -0.632,-0.04 h -0.228 v -3.479 h -0.887 v 8.019 c 0.443,0.068 1.236,0.149 2.028,0.149 1.452,0 2.392,-0.766 2.392,-1.962 0,-1.329 -0.78,-2.122 -1.814,-2.486 l 2.312,-3.547 z"
       id="path58"
       style="fill:#656263;fill-opacity:1;fill-rule:nonzero;stroke:none" /></g><g
     transform="matrix(1.25,0,0,-1.25,146.52887,18.424125)"
     id="g60"><path
       d="m 0,0 c -1.143,0 -1.733,-0.807 -1.733,-2.486 0,-1.653 0.565,-2.566 1.733,-2.566 1.141,0 1.72,0.806 1.72,2.486 C 1.72,-0.914 1.168,0 0,0 m 0,-5.805 c -1.975,0 -2.633,1.411 -2.633,3.279 0,1.813 0.847,3.278 2.633,3.278 1.975,0 2.62,-1.41 2.62,-3.278 C 2.62,-4.34 1.787,-5.805 0,-5.805"
       id="path62"
       style="fill:#656263;fill-opacity:1;fill-rule:nonzero;stroke:none" /></g><g
     transform="matrix(1.25,0,0,-1.25,153.1775,19.415375)"
     id="g64"><path
       d="m 0,0 v -4.863 h -0.847 v 4.877 l -0.188,1.329 0.872,0.161 0.109,-0.846 h 0.013 c 0.444,0.483 1.021,0.873 1.8,0.873 v -0.9 C 1.047,0.631 0.496,0.43 0,0"
       id="path66"
       style="fill:#656263;fill-opacity:1;fill-rule:nonzero;stroke:none" /></g><g
     transform="matrix(1.25,0,0,-1.25,159.69112,18.424125)"
     id="g68"><path
       d="m 0,0 c -1.142,0 -1.732,-0.807 -1.732,-2.486 0,-1.653 0.564,-2.566 1.732,-2.566 1.142,0 1.72,0.806 1.72,2.486 C 1.72,-0.914 1.169,0 0,0 m 0,-5.805 c -1.975,0 -2.633,1.411 -2.633,3.279 0,1.813 0.847,3.278 2.633,3.278 1.975,0 2.62,-1.41 2.62,-3.278 C 2.62,-4.34 1.787,-5.805 0,-5.805"
       id="path70"
       style="fill:#656263;fill-opacity:1;fill-rule:nonzero;stroke:none" /></g><g
     transform="matrix(1.25,0,0,-1.25,171.05775,16.141375)"
     id="g72"><path
       d="m 0,0 c -0.322,0 -0.685,-0.026 -0.886,-0.053 v -3.238 h 0.201 c 1.182,0 2.445,0.47 2.445,1.812 C 1.76,-0.457 1.061,0 0,0 m 2.365,-7.725 -2.391,3.762 c -0.215,-0.027 -0.416,-0.04 -0.632,-0.04 h -0.228 v -3.479 h -0.887 v 8.019 c 0.443,0.068 1.236,0.149 2.028,0.149 1.452,0 2.392,-0.766 2.392,-1.962 0,-1.329 -0.78,-2.122 -1.814,-2.486 l 2.312,-3.547 z"
       id="path74"
       style="fill:#656263;fill-opacity:1;fill-rule:nonzero;stroke:none" /></g><g
     transform="matrix(1.25,0,0,-1.25,179.30362,18.341125)"
     id="g76"><path
       d="m 0,0 c -0.859,0 -1.424,-0.672 -1.584,-1.666 h 2.86 C 1.276,-0.645 0.9,0 0,0 m 0.242,-5.871 c -1.76,0 -2.727,1.236 -2.727,3.291 0,1.963 0.98,3.266 2.539,3.266 1.424,0 2.056,-0.928 2.056,-2.258 v -0.766 h -3.748 c 0,-1.853 0.617,-2.754 2.108,-2.754 0.497,0 0.928,0.149 1.37,0.377 L 2.164,-5.4 C 1.6,-5.723 0.98,-5.871 0.242,-5.871"
       id="path78"
       style="fill:#656263;fill-opacity:1;fill-rule:nonzero;stroke:none" /></g><g
     transform="matrix(1.25,0,0,-1.25,186.87625,18.424125)"
     id="g80"><path
       d="m 0,0 c -1.142,0 -1.732,-0.807 -1.732,-2.486 0,-1.653 0.564,-2.566 1.732,-2.566 1.142,0 1.72,0.806 1.72,2.486 C 1.72,-0.914 1.169,0 0,0 m 0,-5.805 c -1.975,0 -2.633,1.411 -2.633,3.279 0,1.813 0.847,3.278 2.633,3.278 1.975,0 2.62,-1.41 2.62,-3.278 C 2.62,-4.34 1.787,-5.805 0,-5.805"
       id="path82"
       style="fill:#656263;fill-opacity:1;fill-rule:nonzero;stroke:none" /></g><g
     transform="matrix(1.25,0,0,-1.25,197.21987,22.3035)"
     id="g84"><path
       d="m 0,0 c -0.752,0 -1.357,0.563 -1.357,1.369 0,0.807 0.605,1.358 1.357,1.358 0.752,0 1.37,-0.551 1.37,-1.358 C 1.37,0.563 0.752,0 0,0"
       id="path86"
       style="fill:#9fa638;fill-opacity:1;fill-rule:nonzero;stroke:none" /></g><g
     transform="matrix(1.25,0,0,-1.25,210.73725,25.62875)"
     id="g88"
     style="fill:#656263;fill-opacity:1"><path
       d="M 0,0 -3.922,6.932 H -3.936 V 0.107 h -0.82 v 8.088 h 1.115 L 0.175,1.491 h 0.013 v 6.704 h 0.82 V 0.174 Z"
       id="path90"
       style="fill:#656263;fill-opacity:1;fill-rule:nonzero;stroke:none" /></g><g
     transform="matrix(1.25,0,0,-1.25,217.45425,18.341125)"
     id="g92"
     style="fill:#656263;fill-opacity:1"><path
       d="M 0,0 C -0.86,0 -1.424,-0.672 -1.585,-1.666 H 1.276 C 1.276,-0.645 0.9,0 0,0 m 0.242,-5.871 c -1.76,0 -2.727,1.236 -2.727,3.291 0,1.963 0.98,3.266 2.539,3.266 1.424,0 2.055,-0.928 2.055,-2.258 v -0.766 h -3.748 c 0,-1.853 0.618,-2.754 2.109,-2.754 0.497,0 0.927,0.149 1.37,0.377 L 2.163,-5.4 C 1.599,-5.723 0.98,-5.871 0.242,-5.871"
       id="path94"
       style="fill:#656263;fill-opacity:1;fill-rule:nonzero;stroke:none" /></g><g
     transform="matrix(1.25,0,0,-1.25,229.29137,25.4945)"
     id="g96"
     style="fill:#656263;fill-opacity:1"><path
       d="m 0,0 h -0.792 l -1.64,4.998 H -2.445 L -4.098,0 h -0.806 l -1.572,6.22 0.847,0.215 1.196,-5.146 h 0.014 l 1.571,4.971 h 0.888 l 1.571,-4.971 h 0.014 L 0.847,6.26 h 0.86 z"
       id="path98"
       style="fill:#656263;fill-opacity:1;fill-rule:nonzero;stroke:none" /></g><g
     transform="matrix(1.25,0,0,-1.25,236.09188,25.4945)"
     id="g100"
     style="fill:#656263;fill-opacity:1"><path
       d="M 0,0 V 0.738 L 4.675,7.322 V 7.335 H 0.335 V 8.088 H 5.736 V 7.361 L 1.154,0.766 V 0.752 H 5.978 V 0 Z"
       id="path102"
       style="fill:#656263;fill-opacity:1;fill-rule:nonzero;stroke:none" /></g><g
     transform="matrix(1.25,0,0,-1.25,247.727,18.341125)"
     id="g104"
     style="fill:#656263;fill-opacity:1"><path
       d="M 0,0 C -0.859,0 -1.424,-0.672 -1.584,-1.666 H 1.277 C 1.277,-0.645 0.9,0 0,0 m 0.242,-5.871 c -1.76,0 -2.726,1.236 -2.726,3.291 0,1.963 0.98,3.266 2.539,3.266 1.424,0 2.054,-0.928 2.054,-2.258 v -0.766 h -3.748 c 0,-1.853 0.619,-2.754 2.11,-2.754 0.498,0 0.927,0.149 1.369,0.377 L 2.164,-5.4 C 1.6,-5.723 0.98,-5.871 0.242,-5.871"
       id="path106"
       style="fill:#656263;fill-opacity:1;fill-rule:nonzero;stroke:none" /></g><g
     transform="matrix(1.25,0,0,-1.25,256.22075,22.103375)"
     id="g108"
     style="fill:#656263;fill-opacity:1"><path
       d="m 0,0 -1.127,-0.147 c -0.9,-0.121 -1.383,-0.39 -1.383,-1.021 0,-0.564 0.362,-0.94 0.94,-0.94 0.713,0 1.17,0.322 1.57,0.67 z M 0.162,-2.82 0.055,-2.068 H 0.041 c -0.48,-0.457 -0.98,-0.806 -1.73,-0.806 -1.077,0 -1.68,0.632 -1.68,1.611 0,1.103 0.885,1.64 2.148,1.775 L 0,0.646 v 0.618 c 0,0.953 -0.281,1.625 -1.383,1.625 -0.537,0 -0.939,-0.174 -1.342,-0.363 l -0.31,0.659 c 0.539,0.308 1.115,0.51 1.855,0.51 1.168,0 2.028,-0.713 2.028,-1.922 V -1.329 L 1.035,-2.66 Z"
       id="path110"
       style="fill:#656263;fill-opacity:1;fill-rule:nonzero;stroke:none" /></g><g
     transform="matrix(1.25,0,0,-1.25,260.13425,25.4945)"
     id="g112"
     style="fill:#656263;fill-opacity:1"><path
       d="m 0,0 v 7.684 l -0.188,1.33 1.034,0.162 V 0 Z"
       id="path114"
       style="fill:#656263;fill-opacity:1;fill-rule:nonzero;stroke:none" /></g><g
     transform="matrix(1.25,0,0,-1.25,267.69038,22.103375)"
     id="g116"
     style="fill:#656263;fill-opacity:1"><path
       d="m 0,0 -1.127,-0.147 c -0.902,-0.121 -1.385,-0.39 -1.385,-1.021 0,-0.564 0.364,-0.94 0.94,-0.94 0.711,0 1.17,0.322 1.572,0.67 z M 0.162,-2.82 0.055,-2.068 H 0.041 c -0.484,-0.457 -0.98,-0.806 -1.734,-0.806 -1.073,0 -1.68,0.632 -1.68,1.611 0,1.103 0.889,1.64 2.15,1.775 L 0,0.646 v 0.618 c 0,0.953 -0.281,1.625 -1.383,1.625 -0.537,0 -0.939,-0.174 -1.344,-0.363 l -0.308,0.659 c 0.535,0.308 1.115,0.51 1.851,0.51 1.17,0 2.032,-0.713 2.032,-1.922 V -1.329 L 1.035,-2.66 Z"
       id="path118"
       style="fill:#656263;fill-opacity:1;fill-rule:nonzero;stroke:none" /></g><g
     transform="matrix(1.25,0,0,-1.25,276.272,25.4945)"
     id="g120"
     style="fill:#656263;fill-opacity:1"><path
       d="m 0,0 v 4.098 c 0,1.007 -0.377,1.545 -1.316,1.545 -0.661,0 -1.104,-0.27 -1.547,-0.659 V 0 h -0.846 v 4.877 l -0.189,1.329 0.873,0.161 0.109,-0.752 h 0.012 c 0.5,0.484 1.117,0.793 1.869,0.793 1.06,0 1.881,-0.699 1.881,-1.948 V 0 Z"
       id="path122"
       style="fill:#656263;fill-opacity:1;fill-rule:nonzero;stroke:none" /></g><g
     transform="matrix(1.25,0,0,-1.25,284.54838,24.0675)"
     id="g124"
     style="fill:#656263;fill-opacity:1"><path
       d="m 0,0 v 4.272 c -0.23,0.094 -0.564,0.202 -1.074,0.202 -1.358,0 -1.975,-1.168 -1.975,-2.418 0,-1.6 0.414,-2.593 1.719,-2.593 0.564,0 0.953,0.227 1.33,0.537 M 0.201,-1.249 0.094,-0.618 H 0.08 c -0.484,-0.403 -1.035,-0.672 -1.734,-0.672 -1.317,0 -2.297,1.075 -2.297,2.97 0,2.135 1.062,3.519 2.984,3.519 0.455,0 0.791,-0.067 0.967,-0.108 v 1.451 l -0.189,1.33 1.035,0.162 V 0.202 l 0.189,-1.317 z"
       id="path126"
       style="fill:#656263;fill-opacity:1;fill-rule:nonzero;stroke:none" /></g><path
     d="M 292.05125,15.385125 H 293.16 v 10.11 h -1.10875 z"
     id="path128"
     style="fill:#656263;fill-opacity:1;fill-rule:nonzero;stroke:none;stroke-width:1.25" /><g
     transform="matrix(1.25,0,0,-1.25,300.71775,25.4945)"
     id="g130"
     style="fill:#656263;fill-opacity:1"><path
       d="m 0,0 v 4.098 c 0,1.007 -0.377,1.545 -1.316,1.545 -0.659,0 -1.102,-0.27 -1.547,-0.659 V 0 h -0.846 v 4.877 l -0.189,1.329 0.873,0.161 0.111,-0.752 h 0.012 c 0.498,0.484 1.115,0.793 1.867,0.793 1.06,0 1.881,-0.699 1.881,-1.948 V 0 Z"
       id="path132"
       style="fill:#656263;fill-opacity:1;fill-rule:nonzero;stroke:none" /></g><g
     transform="matrix(1.25,0,0,-1.25,306.28913,25.662875)"
     id="g134"
     style="fill:#656263;fill-opacity:1"><path
       d="m 0,0 c -0.604,0 -1.234,0.094 -1.73,0.322 l 0.281,0.78 c 0.443,-0.202 0.939,-0.35 1.408,-0.35 0.781,0 1.316,0.31 1.316,0.994 0,0.512 -0.265,0.699 -0.711,0.914 l -1.222,0.578 c -0.348,0.16 -1.141,0.524 -1.141,1.625 0,1.169 1.022,1.68 2.094,1.68 0.674,0 1.143,-0.107 1.654,-0.322 L 1.641,5.441 C 1.209,5.629 0.795,5.764 0.283,5.764 c -0.754,0 -1.236,-0.243 -1.236,-0.847 0,-0.524 0.443,-0.739 0.697,-0.86 L 1.01,3.453 C 1.842,3.05 2.164,2.539 2.164,1.895 2.164,0.766 1.291,0 0,0"
       id="path136"
       style="fill:#656263;fill-opacity:1;fill-rule:nonzero;stroke:none" /></g><g
     transform="matrix(1.25,0,0,-1.25,313.208,25.64575)"
     id="g138"
     style="fill:#656263;fill-opacity:1"><path
       d="m 0,0 c -0.861,0 -1.479,0.551 -1.479,1.559 v 4.11 h -0.912 v 0.577 l 0.912,0.162 v 1.035 l 0.848,0.12 V 6.381 h 1.76 V 5.669 h -1.76 V 1.895 c 0,-0.847 0.215,-1.129 0.858,-1.129 0.324,0 0.607,0.147 0.781,0.255 L 1.316,0.363 C 0.98,0.174 0.631,0 0,0"
       id="path140"
       style="fill:#656263;fill-opacity:1;fill-rule:nonzero;stroke:none" /></g><g
     transform="matrix(1.25,0,0,-1.25,316.8335,25.4945)"
     id="g142"
     style="fill:#656263;fill-opacity:1"><path
       d="M 0,0 V 4.877 L -0.188,6.206 0.848,6.367 V 0 Z m 0.43,7.188 c -0.364,0 -0.67,0.281 -0.67,0.671 0,0.389 0.306,0.671 0.67,0.671 0.363,0 0.658,-0.282 0.658,-0.671 0,-0.39 -0.295,-0.671 -0.658,-0.671"
       id="path144"
       style="fill:#656263;fill-opacity:1;fill-rule:nonzero;stroke:none" /></g><g
     transform="matrix(1.25,0,0,-1.25,322.727,25.64575)"
     id="g146"
     style="fill:#656263;fill-opacity:1"><path
       d="m 0,0 c -0.857,0 -1.479,0.551 -1.479,1.559 v 4.11 h -0.912 v 0.577 l 0.912,0.162 v 1.035 l 0.848,0.12 V 6.381 h 1.76 V 5.669 h -1.76 V 1.895 c 0,-0.847 0.215,-1.129 0.861,-1.129 0.323,0 0.604,0.147 0.78,0.255 L 1.316,0.363 C 0.98,0.174 0.633,0 0,0"
       id="path148"
       style="fill:#656263;fill-opacity:1;fill-rule:nonzero;stroke:none" /></g><g
     transform="matrix(1.25,0,0,-1.25,331.15725,25.62875)"
     id="g150"
     style="fill:#656263;fill-opacity:1"><path
       d="m 0,0 -0.107,0.752 h -0.012 c -0.5,-0.484 -1.117,-0.793 -1.869,-0.793 -1.061,0 -1.881,0.699 -1.881,1.948 v 3.077 l -0.19,1.329 1.036,0.162 V 2.271 c 0,-1.008 0.377,-1.546 1.316,-1.546 0.66,0 1.103,0.269 1.547,0.658 V 4.984 L -0.35,6.313 0.686,6.475 V 1.491 L 0.875,0.16 Z"
       id="path152"
       style="fill:#656263;fill-opacity:1;fill-rule:nonzero;stroke:none" /></g><g
     transform="matrix(1.25,0,0,-1.25,336.85063,25.64575)"
     id="g154"
     style="fill:#656263;fill-opacity:1"><path
       d="m 0,0 c -0.861,0 -1.479,0.551 -1.479,1.559 v 4.11 h -0.914 v 0.577 l 0.914,0.162 v 1.035 l 0.846,0.12 V 6.381 H 1.129 V 5.669 H -0.633 V 1.895 c 0,-0.847 0.215,-1.129 0.86,-1.129 0.324,0 0.605,0.147 0.779,0.255 L 1.316,0.363 C 0.98,0.174 0.629,0 0,0"
       id="path156"
       style="fill:#656263;fill-opacity:1;fill-rule:nonzero;stroke:none" /></g><g
     transform="matrix(1.25,0,0,-1.25,342.75875,18.341125)"
     id="g158"
     style="fill:#656263;fill-opacity:1"><path
       d="M 0,0 C -0.861,0 -1.424,-0.672 -1.586,-1.666 H 1.277 C 1.277,-0.645 0.9,0 0,0 m 0.242,-5.871 c -1.762,0 -2.726,1.236 -2.726,3.291 0,1.963 0.98,3.266 2.537,3.266 1.424,0 2.056,-0.928 2.056,-2.258 v -0.766 h -3.748 c 0,-1.853 0.619,-2.754 2.11,-2.754 0.496,0 0.927,0.149 1.369,0.377 L 2.164,-5.4 C 1.598,-5.723 0.98,-5.871 0.242,-5.871"
       id="path160"
       style="fill:#656263;fill-opacity:1;fill-rule:nonzero;stroke:none" /></g><g
     transform="matrix(1.25,0,0,-1.25,353.85987,18.424125)"
     id="g162"
     style="fill:#656263;fill-opacity:1"><path
       d="m 0,0 c -1.143,0 -1.734,-0.807 -1.734,-2.486 0,-1.653 0.564,-2.566 1.734,-2.566 1.139,0 1.719,0.806 1.719,2.486 C 1.719,-0.914 1.168,0 0,0 m 0,-5.805 c -1.977,0 -2.635,1.411 -2.635,3.279 0,1.813 0.848,3.278 2.635,3.278 1.975,0 2.617,-1.41 2.617,-3.278 C 2.617,-4.34 1.785,-5.805 0,-5.805"
       id="path164"
       style="fill:#656263;fill-opacity:1;fill-rule:nonzero;stroke:none" /></g><g
     transform="matrix(1.25,0,0,-1.25,362.72212,15.098875)"
     id="g166"
     style="fill:#656263;fill-opacity:1"><path
       d="m 0,0 c -0.201,0.066 -0.375,0.106 -0.658,0.106 -0.633,0 -1.102,-0.429 -1.102,-1.262 V -2.057 H 0.014 V -2.769 H -1.76 v -5.547 h -0.847 v 5.547 H -3.52 v 0.578 l 0.913,0.162 v 0.724 c 0,1.344 0.861,2.137 2.07,2.137 0.297,0 0.512,-0.053 0.726,-0.107 z"
       id="path168"
       style="fill:#656263;fill-opacity:1;fill-rule:nonzero;stroke:none" /></g><g
     transform="matrix(1.25,0,0,-1.25,78.341625,49.917)"
     id="g170"
     style="fill:#656263;fill-opacity:1"><path
       d="M 0,0 V 12.496 H 2.221 V 1.868 H 6.809 V 0 Z"
       id="path172"
       style="fill:#656263;fill-opacity:1;fill-rule:nonzero;stroke:none" /></g><g
     transform="matrix(1.25,0,0,-1.25,94.63625,44.884125)"
     id="g174"
     style="fill:#656263;fill-opacity:1"><path
       d="m 0,0 -1.079,-0.125 c -1.225,-0.145 -1.827,-0.519 -1.827,-1.328 0,-0.705 0.436,-1.225 1.163,-1.225 0.809,0 1.308,0.353 1.743,0.705 z m 0.333,-4.214 -0.167,1.121 h -0.02 c -0.623,-0.601 -1.391,-1.183 -2.554,-1.183 -1.577,0 -2.552,0.975 -2.552,2.553 0,1.805 1.37,2.657 3.362,2.844 L 0,1.287 V 2.075 C 0,3.26 -0.435,4.09 -1.867,4.09 c -0.79,0 -1.35,-0.23 -1.931,-0.541 l -0.768,1.474 c 0.914,0.582 1.827,0.956 3.176,0.956 2.158,0 3.445,-1.225 3.445,-3.218 V -1.64 l 0.333,-2.263 z"
       id="path176"
       style="fill:#656263;fill-opacity:1;fill-rule:nonzero;stroke:none" /></g><g
     transform="matrix(1.25,0,0,-1.25,108.07925,49.917)"
     id="g178"
     style="fill:#656263;fill-opacity:1"><path
       d="m 0,0 v 6.269 c 0,1.265 -0.499,1.888 -1.62,1.888 -0.83,0 -1.453,-0.374 -1.95,-0.831 V 0 h -2.097 v 7.368 l -0.311,2.283 2.055,0.291 0.145,-1.099 h 0.02 c 0.644,0.642 1.62,1.162 2.865,1.162 1.681,0 2.989,-1.018 2.989,-3.113 L 2.096,0 Z"
       id="path180"
       style="fill:#656263;fill-opacity:1;fill-rule:nonzero;stroke:none" /></g><g
     transform="matrix(1.25,0,0,-1.25,118.3545,39.3055)"
     id="g182"
     style="fill:#656263;fill-opacity:1"><path
       d="m 0,0 c -0.914,0 -1.62,-0.643 -1.62,-1.806 0,-1.182 0.664,-1.785 1.62,-1.785 0.934,0 1.619,0.643 1.619,1.785 C 1.619,-0.623 0.975,0 0,0 m 1.869,-8.406 h -2.554 c -0.291,0 -0.602,0 -0.872,0.04 -0.229,-0.207 -0.623,-0.684 -0.623,-1.391 0,-1.016 0.644,-1.535 1.952,-1.535 2.159,0 3.383,1.204 3.383,2.18 0,0.56 -0.478,0.706 -1.286,0.706 m 1.286,8.282 C 3.404,-0.603 3.549,-1.163 3.549,-1.785 3.549,-3.674 2.2,-5.127 0,-5.127 c -0.374,0 -0.727,0.063 -1.059,0.124 -0.27,-0.186 -0.519,-0.518 -0.519,-0.934 0,-0.54 0.415,-0.684 0.975,-0.684 h 2.907 c 1.723,0 2.678,-0.603 2.678,-2.076 0,-1.972 -1.869,-4.235 -5.523,-4.235 -2.178,0 -3.424,0.955 -3.424,2.677 0,1.288 0.809,2.014 1.266,2.305 -0.435,0.312 -0.726,0.726 -0.726,1.453 0,1.225 1.017,1.827 1.266,1.951 -0.913,0.582 -1.412,1.577 -1.412,2.761 0,1.889 1.371,3.32 3.571,3.32 0.788,0 1.474,-0.165 2.013,-0.476 l 3.051,0.457 v -1.64 z"
       id="path184"
       style="fill:#656263;fill-opacity:1;fill-rule:nonzero;stroke:none" /></g><g
     transform="matrix(1.25,0,0,-1.25,134.70087,50.151375)"
     id="g186"
     style="fill:#656263;fill-opacity:1"><path
       d="m 0,0 -0.166,1.101 h -0.022 c -0.642,-0.622 -1.618,-1.142 -2.864,-1.142 -1.66,0 -2.989,1.016 -2.989,3.112 v 4.485 l -0.311,2.283 2.408,0.291 V 3.674 c 0,-1.245 0.497,-1.867 1.64,-1.867 0.809,0 1.432,0.352 1.93,0.809 v 4.94 L -0.686,9.839 1.723,10.13 V 2.574 L 2.055,0.311 Z"
       id="path188"
       style="fill:#656263;fill-opacity:1;fill-rule:nonzero;stroke:none" /></g><g
     transform="matrix(1.25,0,0,-1.25,146.04,44.884125)"
     id="g190"
     style="fill:#656263;fill-opacity:1"><path
       d="m 0,0 -1.079,-0.125 c -1.225,-0.145 -1.827,-0.519 -1.827,-1.328 0,-0.705 0.436,-1.225 1.162,-1.225 0.81,0 1.309,0.353 1.744,0.705 z m 0.333,-4.214 -0.167,1.121 h -0.02 c -0.623,-0.601 -1.391,-1.183 -2.554,-1.183 -1.577,0 -2.553,0.975 -2.553,2.553 0,1.805 1.37,2.657 3.363,2.844 L 0,1.287 V 2.075 C 0,3.26 -0.435,4.09 -1.868,4.09 c -0.789,0 -1.349,-0.23 -1.93,-0.541 l -0.768,1.474 c 0.913,0.582 1.827,0.956 3.175,0.956 2.159,0 3.446,-1.225 3.446,-3.218 V -1.64 l 0.332,-2.263 z"
       id="path192"
       style="fill:#656263;fill-opacity:1;fill-rule:nonzero;stroke:none" /></g><g
     transform="matrix(1.25,0,0,-1.25,156.3165,39.3055)"
     id="g194"
     style="fill:#656263;fill-opacity:1"><path
       d="m 0,0 c -0.914,0 -1.62,-0.643 -1.62,-1.806 0,-1.182 0.665,-1.785 1.62,-1.785 0.934,0 1.62,0.643 1.62,1.785 C 1.62,-0.623 0.976,0 0,0 m 1.869,-8.406 h -2.554 c -0.291,0 -0.602,0 -0.871,0.04 -0.229,-0.207 -0.624,-0.684 -0.624,-1.391 0,-1.016 0.644,-1.535 1.952,-1.535 2.159,0 3.383,1.204 3.383,2.18 0,0.56 -0.478,0.706 -1.286,0.706 m 1.286,8.282 C 3.405,-0.603 3.549,-1.163 3.549,-1.785 3.549,-3.674 2.2,-5.127 0,-5.127 c -0.373,0 -0.726,0.063 -1.059,0.124 -0.27,-0.186 -0.519,-0.518 -0.519,-0.934 0,-0.54 0.415,-0.684 0.976,-0.684 h 2.906 c 1.723,0 2.677,-0.603 2.677,-2.076 0,-1.972 -1.867,-4.235 -5.521,-4.235 -2.179,0 -3.425,0.955 -3.425,2.677 0,1.288 0.81,2.014 1.266,2.305 -0.435,0.312 -0.726,0.726 -0.726,1.453 0,1.225 1.017,1.827 1.267,1.951 -0.914,0.582 -1.412,1.577 -1.412,2.761 0,1.889 1.37,3.32 3.57,3.32 0.788,0 1.474,-0.165 2.013,-0.476 l 3.051,0.457 v -1.64 z"
       id="path196"
       style="fill:#656263;fill-opacity:1;fill-rule:nonzero;stroke:none" /></g><g
     transform="matrix(1.25,0,0,-1.25,169.08387,39.537375)"
     id="g198"
     style="fill:#656263;fill-opacity:1"><path
       d="M 0,0 C -1.142,0 -1.827,-0.895 -1.994,-2.057 H 1.64 C 1.64,-0.832 1.141,0 0,0 m 0.415,-8.554 c -3.052,0 -4.525,1.973 -4.525,5.231 0,2.989 1.661,5.003 4.193,5.003 2.511,0 3.446,-1.701 3.446,-3.944 v -1.163 h -5.585 c 0.042,-2.2 0.935,-3.258 2.803,-3.258 0.851,0 1.412,0.208 2.158,0.561 L 3.611,-7.765 C 2.594,-8.284 1.66,-8.554 0.415,-8.554"
       id="path200"
       style="fill:#656263;fill-opacity:1;fill-rule:nonzero;stroke:none" /></g><g
     transform="matrix(1.25,0,0,-1.25,185.87337,42.860125)"
     id="g202"
     style="fill:#656263;fill-opacity:1"><path
       d="m 0,0 h -0.997 v -3.861 h 1.391 c 1.495,0 2.594,0.602 2.594,1.889 C 2.988,-0.665 2.096,0 0,0 m -0.083,5.335 c -0.292,0 -0.645,-0.021 -0.914,-0.062 V 1.516 c 1.743,0.021 3.093,0.517 3.093,2.076 0,1.224 -0.809,1.743 -2.179,1.743 M -0.312,-5.646 H -3.135 V 6.746 c 0.54,0.063 2.014,0.208 3.321,0.208 2.698,0 4.131,-0.934 4.131,-2.864 0,-1.537 -0.976,-2.43 -2.221,-2.928 V 1.142 C 3.881,0.955 5.21,-0.063 5.21,-1.785 c 0,-2.678 -2.2,-3.861 -5.522,-3.861"
       id="path204"
       style="fill:#656263;fill-opacity:1;fill-rule:nonzero;stroke:none" /></g><g
     transform="matrix(1.25,0,0,-1.25,197.65375,41.14875)"
     id="g206"
     style="fill:#656263;fill-opacity:1"><path
       d="m 0,0 v -7.015 h -2.097 v 7.369 l -0.311,2.283 2.055,0.291 0.165,-1.35 h 0.021 C 0.435,2.326 1.307,2.969 2.697,2.969 V 0.977 C 1.536,0.977 0.726,0.729 0,0"
       id="path208"
       style="fill:#656263;fill-opacity:1;fill-rule:nonzero;stroke:none" /></g><g
     transform="matrix(1.25,0,0,-1.25,208.3685,44.884125)"
     id="g210"
     style="fill:#656263;fill-opacity:1"><path
       d="m 0,0 -1.079,-0.125 c -1.225,-0.145 -1.827,-0.519 -1.827,-1.328 0,-0.705 0.436,-1.225 1.162,-1.225 0.81,0 1.309,0.353 1.744,0.705 z m 0.333,-4.214 -0.167,1.121 h -0.02 c -0.623,-0.601 -1.391,-1.183 -2.554,-1.183 -1.577,0 -2.553,0.975 -2.553,2.553 0,1.805 1.37,2.657 3.363,2.844 L 0,1.287 V 2.075 C 0,3.26 -0.435,4.09 -1.868,4.09 c -0.789,0 -1.349,-0.23 -1.93,-0.541 l -0.768,1.474 c 0.913,0.582 1.827,0.956 3.175,0.956 2.159,0 3.446,-1.225 3.446,-3.218 V -1.64 l 0.332,-2.263 z"
       id="path212"
       style="fill:#656263;fill-opacity:1;fill-rule:nonzero;stroke:none" /></g><g
     transform="matrix(1.25,0,0,-1.25,216.10225,36.1145)"
     id="g214"
     style="fill:#656263;fill-opacity:1"><path
       d="m 0,0 c -0.747,0 -1.349,0.603 -1.349,1.35 0,0.768 0.602,1.349 1.349,1.349 0.748,0 1.35,-0.581 1.35,-1.349 C 1.35,0.603 0.748,0 0,0 m -1.059,-11.042 v 7.368 l -0.312,2.283 2.408,0.291 v -9.942 z"
       id="path216"
       style="fill:#656263;fill-opacity:1;fill-rule:nonzero;stroke:none" /></g><g
     transform="matrix(1.25,0,0,-1.25,228.2715,49.917)"
     id="g218"
     style="fill:#656263;fill-opacity:1"><path
       d="m 0,0 v 6.269 c 0,1.265 -0.498,1.888 -1.619,1.888 -0.83,0 -1.454,-0.374 -1.951,-0.831 V 0 h -2.097 v 7.368 l -0.311,2.283 2.055,0.291 0.145,-1.099 h 0.021 c 0.644,0.642 1.619,1.162 2.864,1.162 1.682,0 2.99,-1.018 2.99,-3.113 L 2.097,0 Z"
       id="path220"
       style="fill:#656263;fill-opacity:1;fill-rule:nonzero;stroke:none" /></g><g
     transform="matrix(1.25,0,0,-1.25,244.30913,35.9315)"
     id="g222"
     style="fill:#656263;fill-opacity:1"><path
       d="m 0,0 c -0.852,0 -1.434,-0.52 -1.434,-1.641 0,-0.809 0.332,-1.453 1.164,-2.221 0.954,0.768 1.514,1.37 1.514,2.512 C 1.244,-0.561 0.809,0 0,0 m -0.604,-5.834 c -0.621,-0.518 -1.181,-1.182 -1.181,-2.033 0,-1.163 0.808,-1.932 2.033,-1.932 1.164,0 1.994,0.541 2.574,1.267 z m 7.411,-5.708 -2.676,2.055 c -0.936,-1.184 -2.305,-1.951 -4.194,-1.951 -2.138,0 -3.611,1.141 -3.611,3.155 0,1.556 0.787,2.449 1.93,3.384 -0.871,0.872 -1.432,1.805 -1.432,3.133 0,2.077 1.432,3.322 3.364,3.322 1.597,0 2.779,-1.079 2.779,-2.72 0,-1.659 -0.787,-2.469 -2.115,-3.506 l 2.925,-2.284 c 0.311,0.933 0.416,1.785 0.477,3.092 H 7.865 V -5.46 H 5.686 C 5.645,-6.29 5.416,-7.142 5.105,-7.91 l 2.803,-2.157 z"
       id="path224"
       style="fill:#656263;fill-opacity:1;fill-rule:nonzero;stroke:none" /></g><g
     transform="matrix(1.25,0,0,-1.25,266.6235,42.860125)"
     id="g226"
     style="fill:#656263;fill-opacity:1"><path
       d="m 0,0 h -0.996 v -3.861 h 1.389 c 1.496,0 2.595,0.602 2.595,1.889 C 2.988,-0.665 2.096,0 0,0 m -0.084,5.335 c -0.291,0 -0.643,-0.021 -0.912,-0.062 V 1.516 c 1.742,0.021 3.092,0.517 3.092,2.076 0,1.224 -0.809,1.743 -2.18,1.743 M -0.311,-5.646 H -3.135 V 6.746 c 0.539,0.063 2.014,0.208 3.321,0.208 2.701,0 4.13,-0.934 4.13,-2.864 0,-1.537 -0.974,-2.43 -2.22,-2.928 v -0.02 c 1.787,-0.187 3.115,-1.205 3.115,-2.927 0,-2.678 -2.201,-3.861 -5.522,-3.861"
       id="path228"
       style="fill:#656263;fill-opacity:1;fill-rule:nonzero;stroke:none" /></g><g
     transform="matrix(1.25,0,0,-1.25,280.11725,39.537375)"
     id="g230"
     style="fill:#656263;fill-opacity:1"><path
       d="M 0,0 C -1.143,0 -1.828,-0.895 -1.992,-2.057 H 1.641 C 1.641,-0.832 1.143,0 0,0 m 0.414,-8.554 c -3.051,0 -4.523,1.973 -4.523,5.231 0,2.989 1.66,5.003 4.193,5.003 2.512,0 3.445,-1.701 3.445,-3.944 v -1.163 h -5.586 c 0.043,-2.2 0.936,-3.258 2.803,-3.258 0.852,0 1.412,0.208 2.158,0.561 L 3.611,-7.765 C 2.596,-8.284 1.66,-8.554 0.414,-8.554"
       id="path232"
       style="fill:#656263;fill-opacity:1;fill-rule:nonzero;stroke:none" /></g><g
     transform="matrix(1.25,0,0,-1.25,294.46537,49.917)"
     id="g234"
     style="fill:#656263;fill-opacity:1"><path
       d="m 0,0 v 6.269 c 0,1.224 -0.498,1.847 -1.66,1.847 -0.83,0 -1.412,-0.333 -1.91,-0.79 V 0 h -2.096 v 11.623 l -0.311,2.263 2.407,0.312 V 8.987 h 0.021 c 0.645,0.561 1.535,1.018 2.656,1.018 1.704,0 2.989,-1.018 2.989,-3.113 L 2.096,0 Z"
       id="path236"
       style="fill:#656263;fill-opacity:1;fill-rule:nonzero;stroke:none" /></g><g
     transform="matrix(1.25,0,0,-1.25,306.22075,44.884125)"
     id="g238"
     style="fill:#656263;fill-opacity:1"><path
       d="m 0,0 -1.078,-0.125 c -1.227,-0.145 -1.826,-0.519 -1.826,-1.328 0,-0.705 0.435,-1.225 1.16,-1.225 0.812,0 1.31,0.353 1.744,0.705 z M 0.334,-4.214 0.166,-3.093 H 0.145 c -0.622,-0.601 -1.389,-1.183 -2.551,-1.183 -1.58,0 -2.555,0.975 -2.555,2.553 0,1.805 1.371,2.657 3.363,2.844 L 0,1.287 V 2.075 C 0,3.26 -0.434,4.09 -1.867,4.09 c -0.789,0 -1.35,-0.23 -1.93,-0.541 l -0.767,1.474 c 0.912,0.582 1.826,0.956 3.173,0.956 2.159,0 3.448,-1.225 3.448,-3.218 V -1.64 l 0.33,-2.263 z"
       id="path240"
       style="fill:#656263;fill-opacity:1;fill-rule:nonzero;stroke:none" /></g><g
     transform="matrix(1.25,0,0,-1.25,317.38038,49.840125)"
     id="g242"
     style="fill:#656263;fill-opacity:1"><path
       d="m 0,0 -2.076,-0.165 -3.197,9.651 2.095,0.498 2.223,-7.41 h 0.019 l 2.43,7.119 H 3.57 Z"
       id="path244"
       style="fill:#656263;fill-opacity:1;fill-rule:nonzero;stroke:none" /></g><g
     transform="matrix(1.25,0,0,-1.25,325.5005,36.1145)"
     id="g246"
     style="fill:#656263;fill-opacity:1"><path
       d="m 0,0 c -0.746,0 -1.348,0.603 -1.348,1.35 0,0.768 0.602,1.349 1.348,1.349 0.75,0 1.35,-0.581 1.35,-1.349 C 1.35,0.603 0.75,0 0,0 m -1.059,-11.042 v 7.368 l -0.31,2.283 2.41,0.291 v -9.942 z"
       id="path248"
       style="fill:#656263;fill-opacity:1;fill-rule:nonzero;stroke:none" /></g><g
     transform="matrix(1.25,0,0,-1.25,335.127,39.7205)"
     id="g250"
     style="fill:#656263;fill-opacity:1"><path
       d="m 0,0 c -1.391,0 -2.137,-0.996 -2.137,-3.217 0,-2.201 0.725,-3.321 2.137,-3.321 1.391,0 2.119,1.037 2.119,3.237 C 2.119,-1.101 1.412,0 0,0 m 0,-8.386 c -3.094,0 -4.275,2.2 -4.275,5.127 0,2.885 1.433,5.085 4.275,5.085 3.094,0 4.277,-2.158 4.277,-5.085 0,-2.886 -1.433,-5.127 -4.277,-5.127"
       id="path252"
       style="fill:#656263;fill-opacity:1;fill-rule:nonzero;stroke:none" /></g><g
     transform="matrix(1.25,0,0,-1.25,350.9815,50.151375)"
     id="g254"
     style="fill:#656263;fill-opacity:1"><path
       d="m 0,0 -0.164,1.101 h -0.022 c -0.644,-0.622 -1.619,-1.142 -2.865,-1.142 -1.66,0 -2.988,1.016 -2.988,3.112 v 4.485 l -0.313,2.283 2.411,0.291 V 3.674 c 0,-1.245 0.496,-1.867 1.638,-1.867 0.811,0 1.432,0.352 1.932,0.809 v 4.94 L -0.684,9.839 1.725,10.13 V 2.574 L 2.057,0.311 Z"
       id="path256"
       style="fill:#656263;fill-opacity:1;fill-rule:nonzero;stroke:none" /></g><g
     transform="matrix(1.25,0,0,-1.25,359.54837,41.14875)"
     id="g258"
     style="fill:#656263;fill-opacity:1"><path
       d="m 0,0 v -7.015 h -2.098 v 7.369 l -0.312,2.283 2.056,0.291 0.165,-1.35 h 0.021 C 0.434,2.326 1.307,2.969 2.697,2.969 V 0.977 C 1.535,0.977 0.725,0.729 0,0"
       id="path260"
       style="fill:#656263;fill-opacity:1;fill-rule:nonzero;stroke:none" /></g></svg>
